<svg xmlns="http://www.w3.org/2000/svg" xmlns:xlink="http://www.w3.org/1999/xlink" version="1.1" x="0px" y="0px" viewBox="0 0 90 112.5" enable-background="new 0 0 90 90" xml:space="preserve"><g><path stroke="white" stroke-width="3" fill="white" d="M76.663,3.348c-0.146-0.229-0.427-0.344-0.688-0.288C61.287,5.945,51.134,34.63,50.704,35.867   c-0.881,2.805-2.134,8.144-0.944,12.89c0.078,0.832,0.313,1.399,0.632,1.776c0.787,1.643,2.003,3.002,3.201,4.312   c1.615,1.765,3.142,3.433,3.515,5.688c0.57,3.414-0.996,7.815-4.593,9.286c-1.402,0.572-2.912,0.772-4.512,0.989   c-1.574,0.211-3.196,0.429-4.74,1.031c-3.651,1.423-9.161,7.408-11.219,10.359c-2.416,3.461-3.347,3.444-8.452,3.401   c-0.654-0.005-1.366-0.014-2.149-0.014c-2.041,0-4.744-0.354-6.06-2.051c-1.371-1.771-0.859-4.565,0.402-6.136   c1.06-1.328,2.686-1.509,4.406-1.702l0.662-0.079c3.506-0.427,4.902-3.578,6.131-6.356c0.385-0.863,0.748-1.685,1.158-2.394   c2.457-4.269,5.494-8.26,8.433-12.127l0.355-0.468c0.224-0.295,0.168-0.717-0.128-0.943c-0.294-0.224-0.717-0.164-0.943,0.128   l-0.354,0.47c-2.963,3.896-6.027,7.928-8.529,12.27c-0.443,0.771-0.822,1.621-1.218,2.52c-1.14,2.572-2.316,5.228-5.064,5.569   l-0.651,0.07c-1.915,0.218-3.899,0.436-5.305,2.198c-1.616,2.019-2.211,5.486-0.413,7.804c1.643,2.125,4.781,2.572,7.121,2.572   c0.781,0,1.487,0.007,2.136,0.011c0.533,0.01,1.026,0.012,1.491,0.012c4.027,0,5.549-0.362,8.08-3.987   c2.237-3.217,7.483-8.659,10.604-9.877c1.392-0.544,2.867-0.738,4.43-0.95c1.61-0.215,3.274-0.438,4.837-1.077   c4.224-1.72,6.068-6.817,5.416-10.751c-0.44-2.655-2.176-4.545-3.853-6.377c-0.833-0.908-1.616-1.799-2.265-2.747   c1.342-0.173,2.398-1.423,2.518-2.995c0.002-0.003,0.002-0.005,0.002-0.005c1.739-6.623,12.844-6.111,12.965-6.108   c0.352,0.051,0.618-0.203,0.688-0.526c0.072-0.32-0.098-0.645-0.404-0.768c-1.03-0.413-5.913-2.031-7.407-2.523   c0.402-1.01,4.443-3.613,9.91-5.966c0.31-0.127,0.473-0.462,0.388-0.79c-0.08-0.319-0.37-0.527-0.722-0.496   c-1.714,0.181-6.044,0.003-7.817-0.083c1.093-2.565,8.411-5.32,13.158-6.55c0.304-0.077,0.515-0.349,0.506-0.657   c-0.005-0.313-0.228-0.58-0.528-0.645c-1.675-0.375-5.902-2.633-7.307-3.396c1.65-5.624,8.323-15.483,8.392-15.585   C76.815,3.871,76.815,3.575,76.663,3.348z M52.013,49.876c-0.14,0-0.32-0.004-0.484-0.114c-0.142-0.323-0.294-0.641-0.396-0.99   c-0.021-0.074-0.026-0.157-0.05-0.234c-0.006-0.117-0.016-0.227-0.016-0.365c0-1.037,0.25-2.251,0.945-2.251   c0.833,0,1.505,0.89,1.505,1.979C53.518,48.991,52.846,49.876,52.013,49.876z M66.826,19.85c-0.071,0.296,0.061,0.605,0.324,0.752   c0.186,0.103,3.521,1.955,6.074,3.052c-4.032,1.222-12.272,4.18-12.272,7.908c0,0.361,0.28,0.653,0.642,0.675   c0.174,0.007,2.938,0.155,5.462,0.195c-4.063,1.958-8.463,4.608-7.632,6.589c0.075,0.178,0.226,0.316,0.413,0.382   c0.035,0.009,2.318,0.759,4.425,1.469c-3.276,0.362-7.877,1.532-9.937,5.096c-0.52-0.84-1.355-1.396-2.312-1.396   c-0.56,0-1.029,0.213-1.398,0.603c-0.114-3.464,0.731-6.873,1.364-8.883c0.098-0.281,9.513-26.879,22.58-31.458   C72.516,7.985,67.955,15.334,66.826,19.85z"/><path stroke="white" stroke-width="3" fill="white" d="M45.517,58.861c-0.257,0.269-0.25,0.692,0.023,0.952C45.668,59.937,45.839,60,46.004,60   c0.177,0,0.353-0.07,0.486-0.209l2.728-2.845c0.171-0.179,0.229-0.435,0.156-0.67c-0.033-0.102-3.303-10.556-3.764-16.341   c-0.033-0.371-0.307-0.601-0.729-0.62c-0.37,0.033-0.648,0.354-0.616,0.726c0.433,5.374,3.103,14.286,3.708,16.26L45.517,58.861z"/></g></svg>